# xmcd
#
# Track frame offsets: 
#        182
#        13380
#        26462
#        38747
#        50417
#        62832
#        74812
#        87112
#        98820
#        110932
#
# Disc length: 1634 seconds
#
# Revision: 2
# Processed by: cddbd v1.5PL3 Copyright (c) Steve Scherf et al.
# Submitted via: ExactAudioCopy v0.95a4
#
DISCID=8c06600a
DTITLE=Various Artist - Hank Williams and Hank Williams, Jr.
DYEAR=1992
DGENRE=Country
TTITLE0=Hank Williams - Hey, Good Lookin'
TTITLE1=Hank Williams - Jambalaya (On The Bayou)
TTITLE2=Hank Williams - Your Cheatin' Heart
TTITLE3=Hank Williams - Kaw-Liga
TTITLE4=Hank Williams - Lovesick Blues
TTITLE5=Hank Williams, Jr. - Long Gone Lonesome Blues
TTITLE6=Hank Williams, Jr. - Eleven Roses
TTITLE7=Hank Williams, Jr. - I've Got A Right To Cry
TTITLE8=Hank Williams, Jr. - Cajun Baby
TTITLE9=Hank Williams, Jr. - It's All Over But The Crying
EXTD=
EXTT0=
EXTT1=
EXTT2=
EXTT3=
EXTT4=
EXTT5=
EXTT6=
EXTT7=
EXTT8=
EXTT9=
PLAYORDER=
